# xmcd
#
# Track frame offsets: 
#        150
#        16826
#        31022
#        46185
#        59934
#        72743
#        85237
#        98157
#        108329
#        123331
#        136200
#        146274
#        157425
#        172595
#        187422
#        200807
#        214536
#        225799
#        238447
#        252053
#
# Disc length: 3577 seconds
#
# Revision: 2
# Processed by: cddbd v1.5.2PL0 Copyright (c) Steve Scherf et al.
# Submitted via: ExactAudioCopyFreeDBPlugin 1.0
#
DISCID=1d0df714
DTITLE=Tom Astor - Highway Dreams - 40 Diesel-Country-Songs Vo. 2 [CD 
DTITLE=2
DYEAR=2012
DGENRE=Country
TTITLE0=Meine Antwort ist die große Autobahn
TTITLE1=Ich bin ein Gefangener der Autobahn
TTITLE2=Mein Laster wartet schon
TTITLE3=Irgendwo am Horizont
TTITLE4=Bleifuß Joe
TTITLE5=Junge zieh die Bremse an
TTITLE6=Buchstabiere LKW
TTITLE7=Ihr Leben das ist ihr Laster
TTITLE8=Sonntag morgen
TTITLE9=Ein richtiger Mann ist immer unterwegs
TTITLE10=Übermüdung tötet
TTITLE11=Ist das ein Leben - so hart und so schön
TTITLE12=Halt Abstand Junge
TTITLE13=Das schöne Mädchen von der Autobahn
TTITLE14=Partner fahr rechts
TTITLE15=Krawattentrucker Erwin
TTITLE16=Pan American Highway
TTITLE17=Er ist ein Gottesmann für Trucker (Pater Hofer Song
TTITLE18=Rollende Giganten
TTITLE19=Wer die Oma nicht kennt hat die Zeit echt verpennt
EXTD=
EXTT0=
EXTT1=
EXTT2=
EXTT3=
EXTT4=
EXTT5=
EXTT6=
EXTT7=
EXTT8=
EXTT9=
EXTT10=
EXTT11=
EXTT12=
EXTT13=
EXTT14=
EXTT15=
EXTT16=
EXTT17=
EXTT18=
EXTT19=
PLAYORDER=
